# xmcd
#
# Track frame offsets: 
#        150
#        42374
#        105277
#        140537
#        188527
#        264814
#
# Disc length: 4234 seconds
#
# Revision: 0
# Processed by: cddbd v1.5.2PL0 Copyright (c) Steve Scherf et al.
# Submitted via: ExactAudioCopyFreeDBPlugin 1.0
#
DISCID=42108806
DTITLE=Various Artist - Radio Stars of America - Dinah Shore
DYEAR=2006
DGENRE=Freestyle
TTITLE0=Peter Lind Hayes - That Old Devil Moon - Mr. and Mrs. Perriwinkl
TTITLE0=e - No Greater Love 
TTITLE1=Frank Sinatra - Counting The Days - The Stoty Of Harry And Fra
TTITLE1=nk - You'll Never Walk Alone
TTITLE2=Peter Lind Hayes - Oh Why, Oh Way, Did I Ever Leave Wyoming? -
TTITLE2=Down On The Ranch - Anniversary Song
TTITLE3=Orson Welles - Georgia On My Mind - Realism In Radio
TTITLE4=Groucho Mark and Harry Von Zell - Let It Snow - Forbes Schneider
TTITLE4=Presents - Congratulations, Groucho, On Your Contract
TTITLE5=Truman Bradley - Here's Dinah (I Got A Gal In Kalamazoo - Be C
TTITLE5=areful, It's My Heart - Basin Street Blues - Mad About Him Blu
TTITLE5=es - My Devotion)
EXTD=
EXTT0=
EXTT1=
EXTT2=
EXTT3=
EXTT4=
EXTT5=
PLAYORDER=
